<svg width="24" height="24" viewBox="0 0 24 24" fill="none" xmlns="http://www.w3.org/2000/svg">
<path d="M10.7072 17C10.5304 17.0005 10.3552 16.9684 10.1918 16.9054C10.0284 16.8424 9.88005 16.7499 9.75531 16.6331L5.3761 12.4217C5.13174 12.185 4.99672 11.8684 5.00006 11.54C5.0034 11.2116 5.14482 10.8975 5.39395 10.6651C5.64308 10.4328 5.98006 10.3007 6.33252 10.2973C6.68498 10.294 7.02481 10.4195 7.27903 10.647L10.7104 13.9737L18.7238 6.34818C18.978 6.12144 19.3173 5.99648 19.6692 6.00008C20.021 6.00368 20.3573 6.13555 20.6061 6.36743C20.8548 6.59932 20.9962 6.91277 20.9999 7.24062C21.0036 7.56847 20.8694 7.88463 20.626 8.12136L11.6614 16.6331C11.5362 16.7498 11.3874 16.8423 11.2236 16.9053C11.0598 16.9682 10.8843 17.0004 10.7072 17Z" fill="#56AB2F"/>
</svg>
