<svg width="24" height="24" viewBox="0 0 24 24" fill="none" xmlns="http://www.w3.org/2000/svg">
<path d="M12 6C10.042 6.01186 8.1337 6.59161 6.52695 7.66278C4.9202 8.73395 3.69047 10.2462 3 12C3.69047 13.7538 4.9202 15.2661 6.52695 16.3372C8.1337 17.4084 10.042 17.9881 12 18C13.958 17.9881 15.8663 17.4084 17.4731 16.3372C19.0798 15.2661 20.3095 13.7538 21 12C20.3095 10.2462 19.0798 8.73395 17.4731 7.66278C15.8663 6.59161 13.958 6.01186 12 6ZM12 16.0005C11.1699 16.0172 10.3533 15.7968 9.65456 15.3675C8.95579 14.9382 8.40646 14.3194 8.07662 13.59C7.74679 12.8607 7.6514 12.0538 7.80262 11.2723C7.95384 10.4908 8.34481 9.77019 8.92568 9.20227C9.50655 8.63436 10.251 8.24492 11.064 8.08363C11.8771 7.92234 12.7219 7.9965 13.4907 8.29667C14.2596 8.59683 14.9176 9.10938 15.3808 9.76896C15.8441 10.4285 16.0916 11.2052 16.0918 12C16.103 13.0498 15.6784 14.0608 14.9111 14.811C14.1438 15.5612 13.0967 15.989 12 16.0005ZM12 9.6C11.502 9.58987 11.012 9.72197 10.5927 9.97945C10.1735 10.2369 9.8438 10.6081 9.64583 11.0457C9.44785 11.4832 9.39053 11.9673 9.48118 12.4362C9.57183 12.905 9.80633 13.3374 10.1548 13.6782C10.5032 14.019 10.9498 14.2527 11.4376 14.3495C11.9254 14.4463 12.4323 14.4018 12.8935 14.2218C13.3548 14.0417 13.7496 13.7342 14.0276 13.3385C14.3055 12.9428 14.454 12.4768 14.4541 12C14.458 11.6881 14.3976 11.3785 14.2764 11.0889C14.1551 10.7993 13.9753 10.5355 13.7473 10.3126C13.5194 10.0897 13.2477 9.91195 12.9478 9.78967C12.648 9.66739 12.3259 9.60294 12 9.6Z" fill="#76858C"/>
</svg>
