<svg width="24" height="24" viewBox="0 0 24 24" fill="none" xmlns="http://www.w3.org/2000/svg">
<path d="M12 7.97093C12.6419 7.96216 13.2766 8.1064 13.8516 8.39169C14.4267 8.67699 14.9254 9.09513 15.3066 9.61148C15.6878 10.1278 15.9405 10.7276 16.0437 11.361C16.1468 11.9944 16.0976 12.6432 15.9 13.2538L18.4035 15.7566C19.5502 14.7449 20.4401 13.4755 21 12.0527C20.0952 9.76573 18.3539 7.90864 16.1294 6.85842C13.9049 5.8082 11.364 5.64356 9.0225 6.3979L10.8 8.16737C11.1883 8.04404 11.5926 7.97787 12 7.97093ZM4.3995 5.23875C4.32362 5.3144 4.26342 5.40426 4.22235 5.5032C4.18127 5.60214 4.16013 5.70821 4.16013 5.81533C4.16013 5.92245 4.18127 6.02852 4.22235 6.12746C4.26342 6.2264 4.32362 6.31627 4.3995 6.39191L6.0105 8.00392C4.66725 9.06744 3.62874 10.4667 3 12.0602C3.4625 13.2421 4.15362 14.3212 5.03382 15.2357C5.91401 16.1502 6.96599 16.8822 8.12953 17.3898C9.29306 17.8973 10.5453 18.1705 11.8146 18.1936C13.0839 18.2167 14.3452 17.9894 15.5265 17.5245L17.7525 19.7439C17.8274 19.8233 17.9175 19.8869 18.0174 19.9308C18.1173 19.9748 18.225 19.9983 18.3342 19.9999C18.4434 20.0015 18.5518 19.9812 18.6529 19.9402C18.7541 19.8992 18.846 19.8382 18.9232 19.7611C19.0004 19.6839 19.0613 19.592 19.1024 19.4909C19.1434 19.3897 19.1637 19.2814 19.1621 19.1723C19.1605 19.0631 19.137 18.9554 19.093 18.8555C19.049 18.7556 18.9854 18.6656 18.906 18.5907L5.556 5.23426C5.40113 5.08329 5.19314 4.99916 4.97683 5.00001C4.76052 5.00085 4.55319 5.08659 4.3995 5.23875ZM12 16.145C10.916 16.1446 9.87651 15.7142 9.10961 14.9484C8.3427 14.1826 7.91109 13.1438 7.9095 12.0602C7.90925 11.4541 8.04617 10.8559 8.31 10.3102L9.594 11.5938C9.56452 11.7476 9.54797 11.9036 9.5445 12.0602C9.5441 12.3826 9.60736 12.7019 9.73064 12.9998C9.85392 13.2977 10.0348 13.5684 10.2629 13.7963C10.491 14.0242 10.7619 14.2049 11.06 14.3279C11.3581 14.451 11.6775 14.514 12 14.5135C12.1571 14.5111 12.3135 14.492 12.4665 14.4565L13.7505 15.7401C13.206 16.0081 12.6069 16.1467 12 16.145ZM14.43 11.7963C14.3716 11.2435 14.1253 10.7276 13.7321 10.3346C13.339 9.94156 12.8229 9.6953 12.27 9.63693L14.43 11.7963Z" fill="#76858C"/>
</svg>
