<svg width="15" height="26" viewBox="0 0 15 26" fill="none" xmlns="http://www.w3.org/2000/svg">
<path d="M10.5647 2.33033C10.5647 3.61733 9.48852 4.66066 8.16098 4.66066C6.83344 4.66066 5.75726 3.61733 5.75726 2.33033C5.75726 1.04332 6.83344 0 8.16098 0C9.48852 0 10.5647 1.04332 10.5647 2.33033Z" fill="#1950A3"/>
<path d="M4.89844 9.67837C4.90329 9.62465 4.83674 9.59393 4.79678 9.63144L2.95097 11.364C2.94438 11.3702 2.93935 11.3778 2.93624 11.3861L1.7496 14.5768C1.58075 15.0308 1.06422 15.2661 0.595904 15.1024C0.127588 14.9387 -0.115175 14.438 0.0536795 13.9839L1.29314 10.6513C1.31504 10.5924 1.34277 10.5372 1.37549 10.4861C1.42047 10.3947 1.4827 10.3095 1.56211 10.235L5.6118 6.43369C6.03709 6.0345 6.8001 5.8104 7.35455 5.85743L8.25252 5.93359C9.09346 6.00492 9.58962 6.6247 9.87593 7.39826C10.2642 8.44744 11.3128 9.90307 11.8604 10.8548C11.8622 10.8581 11.8652 10.8606 11.8687 10.862L14.4461 11.907C14.9054 12.0932 15.122 12.6051 14.93 13.0503C14.7379 13.4956 14.2099 13.7056 13.7506 13.5194L11.1732 12.4745C10.9005 12.3639 10.5647 12.2342 10.4679 12.0224L9.73751 10.753C9.70867 10.7029 9.63033 10.7191 9.62517 10.7763L9.17651 15.7479C9.17575 15.7564 9.17691 15.7649 9.17991 15.7729L12.3992 24.3494C12.6262 24.9541 12.3045 25.6227 11.6808 25.8427C11.057 26.0628 10.3674 25.751 10.1404 25.1463L6.76919 16.1651C6.75961 16.1395 6.71267 16.1438 6.71037 16.1709L6.37271 20.1373C6.3505 20.3982 6.24128 20.6318 6.07499 20.8137C6.07224 20.8167 6.0698 20.82 6.06773 20.8235L3.33199 25.4172C3.0001 25.9745 2.26506 26.1655 1.69021 25.8437C1.11537 25.522 0.918417 24.8093 1.2503 24.2521L3.99744 19.6392C4.00188 19.6317 4.00456 19.6234 4.00529 19.6148L4.33636 15.7258C4.50697 13.7217 4.71676 11.6916 4.89844 9.67837Z" fill="#1950A3"/>
</svg>
