<svg width="24" height="24" viewBox="0 0 24 24" fill="none" xmlns="http://www.w3.org/2000/svg">
<path d="M18.8813 10.0418C19.0979 9.97265 19.333 9.99231 19.535 10.0964C19.737 10.2006 19.8894 10.3807 19.9587 10.5971C20.0252 10.8053 20.0098 11.031 19.9155 11.2281C19.8212 11.4253 19.6552 11.579 19.4513 11.6578L19.404 11.6745L12.2613 13.9598C12.1131 14.0073 11.9548 14.0135 11.8033 13.9778L11.7367 13.9598L4.59601 11.6745C4.37956 11.6052 4.19947 11.4528 4.09533 11.2508C3.9912 11.0487 3.97154 10.8136 4.04068 10.5971C4.10729 10.3889 4.25097 10.2139 4.44231 10.1081C4.63365 10.0023 4.85819 9.97353 5.07001 10.0278L5.11868 10.0418L12 12.2431L18.8813 10.0418Z" fill="#C3CFD4"/>
</svg>
