<svg width="11" height="26" viewBox="0 0 11 26" fill="none" xmlns="http://www.w3.org/2000/svg">
<path d="M8.1512 2.30944C8.1512 3.58491 7.07045 4.61888 5.73728 4.61888C4.4041 4.61888 3.32335 3.58491 3.32335 2.30944C3.32335 1.03397 4.4041 0 5.73728 0C7.07045 0 8.1512 1.03397 8.1512 2.30944Z" fill="#1950A3"/>
<path d="M3.32335 11.7237C3.32335 11.6619 3.2356 11.6433 3.20831 11.6993L1.72585 14.7408C1.51456 15.1743 0.975975 15.3619 0.522875 15.1597C0.069775 14.9576 -0.126256 14.4423 0.0850283 14.0088L3.32609 7.3592C3.72585 6.53902 3.96612 5.7736 5.1338 5.7736H5.73728C7.07045 5.7736 8.15121 6.80757 8.15121 8.08304V9.34275C8.15121 9.35451 8.15496 9.36599 8.16196 9.37565L10.8386 13.0682C11.1235 13.4612 11.0214 14.0008 10.6106 14.2734C10.1997 14.5459 9.63574 14.4483 9.35084 14.0552L8.26114 12.5519C8.22744 12.5054 8.15121 12.5283 8.15121 12.5848V15.1852C8.15121 15.2036 8.15977 15.2209 8.16479 15.2388L9.27689 19.2096L9.27967 19.2197C9.3304 19.3473 9.35817 19.4856 9.35817 19.6302V24.8265C9.35817 25.4642 8.81779 25.9812 8.15121 25.9812C7.48462 25.9812 6.94424 25.4642 6.94424 24.8265V20.1375C6.94424 20.1324 6.94355 20.1274 6.94219 20.1225L5.74792 15.8584C5.74647 15.8532 5.73852 15.8535 5.73755 15.8588L4.04438 25.0456C3.92863 25.6736 3.30263 26.093 2.64616 25.9823C1.9897 25.8715 1.55137 25.2726 1.66712 24.6446L3.33495 15.5953C3.33558 15.5919 3.33283 15.5887 3.3292 15.5887C3.32597 15.5887 3.32335 15.5862 3.32335 15.5831V11.7237Z" fill="#1950A3"/>
</svg>
