<svg width="24" height="16" viewBox="0 0 24 16" fill="none" xmlns="http://www.w3.org/2000/svg">
<path d="M0 1.1C0 0.768629 0.268629 0.5 0.6 0.5H1.8C2.13137 0.5 2.4 0.768629 2.4 1.1V8H23.4C23.7314 8 24 8.26863 24 8.6V14.9C24 15.2314 23.7314 15.5 23.4 15.5H22.2C21.8686 15.5 21.6 15.2314 21.6 14.9V12.2H2.4V14.9C2.4 15.2314 2.13137 15.5 1.8 15.5H0.6C0.268629 15.5 0 15.2314 0 14.9V1.1Z" fill="#1950A3"/>
<path d="M9 4.7C9 6.02548 7.92548 7.1 6.6 7.1C5.27452 7.1 4.2 6.02548 4.2 4.7C4.2 3.37452 5.27452 2.3 6.6 2.3C7.92548 2.3 9 3.37452 9 4.7Z" fill="#1950A3"/>
<path d="M10.8 2.3C10.4686 2.3 10.2 2.56863 10.2 2.9V6.5C10.2 6.83137 10.4686 7.1 10.8 7.1H23.4C23.7314 7.1 24 6.83137 24 6.5V4.7C24 3.37452 22.9255 2.3 21.6 2.3H10.8Z" fill="#1950A3"/>
</svg>
