<svg width="17" height="26" viewBox="0 0 17 26" fill="none" xmlns="http://www.w3.org/2000/svg">
<path d="M13.7698 2.79696C13.7698 4.06554 12.7457 5.09392 11.4825 5.09392C10.2192 5.09392 9.19517 4.06554 9.19517 2.79696C9.19517 1.52838 10.2192 0.5 11.4825 0.5C12.7457 0.5 13.7698 1.52838 13.7698 2.79696Z" fill="#1950A3"/>
<path d="M7.63343 8.9692C7.64091 8.92575 7.59884 8.8904 7.55757 8.90545L5.47831 9.68785C5.40003 9.71639 5.22624 10.0458 5.19239 10.1185L3.96463 12.9256C3.76418 13.3566 3.25373 13.5428 2.82451 13.3415C2.3953 13.1402 2.20985 12.6276 2.41031 12.1966L4.00271 8.77253C4.11766 8.52538 4.3076 8.25767 4.56907 8.16233L8.50268 6.72809C9.09381 6.51256 9.42774 6.17529 10.1245 6.2962L10.9697 6.44288C11.9465 6.6124 12.0555 7.28095 12.3936 8.0312L13.9012 11.3768C13.9104 11.3974 13.9308 11.4106 13.9533 11.4106H16.1423C16.616 11.4106 17 11.7962 17 12.2719C17 12.7476 16.616 13.1333 16.1423 13.1333H13.4839C13.1109 13.1333 12.7285 12.9529 12.5698 12.6008L11.9816 11.2954C11.9584 11.2439 11.8827 11.2536 11.8731 11.3093L11.0566 16.0542C11.0527 16.077 11.0628 16.1 11.0823 16.1124L14.0367 18.0011C14.5331 18.3185 14.5872 18.818 14.5044 19.3458L13.6918 24.5299C13.5935 25.1565 13.0081 25.5845 12.3842 25.4859C11.7602 25.3872 11.3341 24.7993 11.4323 24.1728L12.1551 19.562C12.1586 19.5394 12.1485 19.5169 12.1293 19.5046L8.61397 17.2574C8.57949 17.2354 8.53379 17.2557 8.5269 17.2962L7.87251 21.1383C7.78803 21.6344 7.40321 21.9708 6.93244 22.0872L1.41727 23.4505C0.803953 23.6021 0.184381 23.2257 0.0334148 22.6098C-0.117551 21.9939 0.257256 21.3717 0.87057 21.2201L5.70684 20.0246C5.72893 20.0191 5.7457 20.001 5.74953 19.9785L6.49947 15.5753C6.4996 15.5745 6.49908 15.5738 6.49832 15.5737C6.49755 15.5736 6.49704 15.5728 6.49717 15.5721L7.63343 8.9692Z" fill="#1950A3"/>
</svg>
