<svg width="12" height="26" viewBox="0 0 12 26" fill="none" xmlns="http://www.w3.org/2000/svg">
<path d="M8.4 2.44706C8.4 3.79853 7.32548 4.89411 6 4.89411C4.67452 4.89411 3.6 3.79853 3.6 2.44706C3.6 1.09558 4.67452 0 6 0C7.32548 0 8.4 1.09558 8.4 2.44706Z" fill="#1950A3"/>
<path d="M10.5 13.9176C10.5 13.4953 10.8358 13.1529 11.25 13.1529C11.6642 13.1529 12 13.4953 12 13.9176V25.2353C12 25.6576 11.6642 26 11.25 26C10.8358 26 10.5 25.6576 10.5 25.2353V13.9176Z" fill="#1950A3"/>
<path d="M5.53774 6.29757C3.93734 5.86034 2.29233 6.8287 1.86351 8.46048C1.29379 10.6284 0.3 13.3059 0 15.6067V24.7765C0 25.4522 0.537258 26 1.2 26C1.86274 26 2.4 25.4522 2.4 24.7765V16.3251C2.4 16.2647 2.48611 16.2551 2.50093 16.3115L3.48756 20.0659C3.5622 20.3499 3.6 20.6427 3.6 20.9367V24.7765C3.6 25.4522 4.13726 26 4.8 26C5.46275 26 6 25.4522 6 24.7765V20.2218C6 19.8823 5.27336 17.4065 4.95015 16.1767C4.90262 15.9958 4.90262 15.8054 4.95015 15.6245L6 11.0118C6.01926 10.9385 6.12123 10.9385 6.14049 11.0118C6.9 12.5412 7.31493 12.9309 7.65 13.1529C8.98645 14.0386 9.15 14.0706 10.35 14.6823C10.8761 14.9505 11.5346 14.6685 11.7 14.3765C11.9196 13.9886 11.8038 13.3687 11.2983 13.0711L9.46382 11.9912C8.73452 11.5619 8.20236 10.8548 7.9844 10.0254L7.60417 8.57853C7.58786 8.51647 7.56862 8.456 7.54664 8.39725C7.26625 7.64786 6.69429 6.93988 6.02744 6.51443C5.87938 6.41997 5.71523 6.34606 5.53774 6.29757Z" fill="#1950A3"/>
</svg>
