<svg width="40" height="40" viewBox="0 0 40 40" fill="none" xmlns="http://www.w3.org/2000/svg">
<rect width="40" height="40" rx="4" fill="white"/>
<path d="M14.4 13.6H15.2V12.8C15.2 12.36 15.56 12 16 12C16.44 12 16.8 12.36 16.8 12.8V13.6H23.2V12.8C23.2 12.36 23.56 12 24 12C24.44 12 24.8 12.36 24.8 12.8V13.6H25.6C26.488 13.6 27.192 14.32 27.192 15.2L27.2 26.4C27.2 27.28 26.488 28 25.6 28H14.4C13.52 28 12.8 27.28 12.8 26.4V15.2C12.8 14.32 13.52 13.6 14.4 13.6ZM15.2 26.4H24.8C25.24 26.4 25.6 26.04 25.6 25.6V17.6H14.4V25.6C14.4 26.04 14.76 26.4 15.2 26.4ZM23.2 19.2H20.8C20.36 19.2 20 19.56 20 20V22.4C20 22.84 20.36 23.2 20.8 23.2H23.2C23.64 23.2 24 22.84 24 22.4V20C24 19.56 23.64 19.2 23.2 19.2Z" fill="#1950A3"/>
</svg>
