<svg width="24" height="24" viewBox="0 0 24 24" fill="none" xmlns="http://www.w3.org/2000/svg">
<path d="M18.8813 13.9582C19.0978 14.0273 19.3329 14.0077 19.5349 13.9036C19.7369 13.7994 19.8893 13.6193 19.9586 13.4029C20.0252 13.1947 20.0097 12.969 19.9154 12.7719C19.8211 12.5747 19.6551 12.421 19.4513 12.3422L19.404 12.3255L12.2613 10.0402C12.1131 9.99275 11.9548 9.98653 11.8033 10.0222L11.7366 10.0402L4.59597 12.3255C4.37951 12.3948 4.19942 12.5472 4.09529 12.7492C3.99115 12.9513 3.97149 13.1864 4.04063 13.4029C4.10725 13.6111 4.25092 13.7861 4.44226 13.8919C4.6336 13.9977 4.85815 14.0265 5.06997 13.9722L5.11863 13.9582L12 11.7569L18.8813 13.9582Z" fill="#C3CFD4"/>
</svg>
