<svg width="24" height="24" viewBox="0 0 24 24" fill="none" xmlns="http://www.w3.org/2000/svg">
<path d="M18.8 5.5H5.2C4.265 5.5 3.5085 6.23125 3.5085 7.125L3.5 16.875C3.5 17.7688 4.265 18.5 5.2 18.5H18.8C19.735 18.5 20.5 17.7688 20.5 16.875V7.125C20.5 6.23125 19.735 5.5 18.8 5.5ZM18.46 8.95312L12.4505 12.5444C12.1785 12.7069 11.8215 12.7069 11.5495 12.5444L5.54 8.95312C5.3275 8.82313 5.2 8.60375 5.2 8.36813C5.2 7.82375 5.8205 7.49875 6.305 7.78312L12 11.1875L17.695 7.78312C18.1795 7.49875 18.8 7.82375 18.8 8.36813C18.8 8.60375 18.6725 8.82313 18.46 8.95312Z" fill="#C3CFD4"/>
</svg>
