<svg width="24" height="24" viewBox="0 0 24 24" fill="none" xmlns="http://www.w3.org/2000/svg">
<path d="M5.99167 5.70877C5.39167 5.97284 5 6.56699 5 7.21891V11.0974C5 15.6774 8.2 19.9602 12.5 21C16.8 19.9602 20 15.6774 20 11.0974V7.21891C20 6.56699 19.6083 5.97284 19.0083 5.70877L13.175 3.14235C12.7417 2.95255 12.25 2.95255 11.825 3.14235L5.99167 5.70877V5.70877ZM12.5 7.79656C12.9583 7.79656 13.3333 8.16791 13.3333 8.62178C13.3333 9.07564 12.9583 9.44699 12.5 9.44699C12.0417 9.44699 11.6667 9.07564 11.6667 8.62178C11.6667 8.16791 12.0417 7.79656 12.5 7.79656ZM12.5 11.0974C12.9583 11.0974 13.3333 11.4688 13.3333 11.9226V15.2235C13.3333 15.6774 12.9583 16.0487 12.5 16.0487C12.0417 16.0487 11.6667 15.6774 11.6667 15.2235V11.9226C11.6667 11.4688 12.0417 11.0974 12.5 11.0974Z" fill="#C3CFD4"/>
</svg>
