<svg width="24" height="24" viewBox="0 0 24 24" fill="none" xmlns="http://www.w3.org/2000/svg">
<path fill-rule="evenodd" clip-rule="evenodd" d="M7.65712 6.27825C7.28612 5.90725 6.68461 5.90725 6.31361 6.27825C5.94261 6.64925 5.94262 7.25075 6.31361 7.62175L10.627 11.9351L6.27825 16.2838C5.90725 16.6548 5.90725 17.2563 6.27825 17.6273C6.64925 17.9983 7.25075 17.9983 7.62175 17.6273L11.9705 13.2786L16.2838 17.592C16.6548 17.963 17.2563 17.963 17.6273 17.592C17.9983 17.221 17.9983 16.6195 17.6273 16.2485L13.314 11.9351L17.592 7.6571C17.963 7.2861 17.963 6.68459 17.592 6.3136C17.221 5.9426 16.6195 5.9426 16.2485 6.3136L11.9705 10.5916L7.65712 6.27825Z" fill="#56AB2F"/>
</svg>
