<svg width="24" height="24" viewBox="0 0 24 24" fill="none" xmlns="http://www.w3.org/2000/svg">
<path d="M18.8813 10.0418C19.0978 9.97265 19.3329 9.99231 19.5349 10.0964C19.7369 10.2006 19.8893 10.3807 19.9586 10.5971C20.0252 10.8053 20.0097 11.031 19.9154 11.2281C19.8211 11.4253 19.6551 11.579 19.4513 11.6578L19.404 11.6745L12.2613 13.9598C12.1131 14.0073 11.9548 14.0135 11.8033 13.9778L11.7366 13.9598L4.59597 11.6745C4.37951 11.6052 4.19942 11.4528 4.09529 11.2508C3.99115 11.0487 3.97149 10.8136 4.04063 10.5971C4.10725 10.3889 4.25092 10.2139 4.44226 10.1081C4.6336 10.0023 4.85815 9.97353 5.06997 10.0278L5.11863 10.0418L12 12.2431L18.8813 10.0418Z" fill="#56AB2F"/>
</svg>
