<svg width="24" height="24" viewBox="0 0 24 24" fill="none" xmlns="http://www.w3.org/2000/svg">
<path d="M17.6 5.6H16.8V4.8C16.8 4.36 16.44 4 16 4C15.56 4 15.2 4.36 15.2 4.8V5.6H8.80005V4.8C8.80005 4.36 8.44005 4 8.00005 4C7.56005 4 7.20005 4.36 7.20005 4.8V5.6H6.40005C5.51205 5.6 4.80805 6.32 4.80805 7.2L4.80005 18.4C4.80005 19.28 5.51205 20 6.40005 20H17.6C18.4801 20 19.2001 19.28 19.2001 18.4V7.2C19.2001 6.32 18.4801 5.6 17.6 5.6ZM16.8 18.4H7.20005C6.76005 18.4 6.40005 18.04 6.40005 17.6V9.6H17.6V17.6C17.6 18.04 17.24 18.4 16.8 18.4ZM8.80005 11.2H11.2C11.64 11.2 12 11.56 12 12V14.4C12 14.84 11.64 15.2 11.2 15.2H8.80005C8.36005 15.2 8.00005 14.84 8.00005 14.4V12C8.00005 11.56 8.36005 11.2 8.80005 11.2Z" fill="#C3CFD4"/>
</svg>
