<svg width="24" height="24" viewBox="0 0 24 24" fill="none" xmlns="http://www.w3.org/2000/svg">
<path d="M9.56582 20.8317C8.51387 20.6163 7.51465 20.1958 6.62517 19.5942C5.30325 18.7017 4.2685 17.445 3.64628 15.9764C3.43598 15.479 3.27545 14.962 3.16705 14.433C2.94432 13.3395 2.94432 12.2123 3.16705 11.1188C3.38246 10.0669 3.80295 9.06768 4.4045 8.17822C5.29693 6.8562 6.55366 5.82142 8.02237 5.19931C8.51979 4.98907 9.03679 4.82852 9.56582 4.72005C10.1112 4.60909 10.6663 4.5533 11.2229 4.55355V12.777L17.0378 18.5919C16.2879 19.342 15.4002 19.9402 14.4234 20.3536C13.926 20.564 13.409 20.7245 12.8799 20.8328C11.7865 21.0557 10.6593 21.0557 9.56582 20.8328V20.8317ZM12.3197 12.3192H20.5432C20.5431 12.8757 20.487 13.4309 20.3755 13.9762C20.1601 15.0282 19.7396 16.0274 19.1381 16.9168C18.8431 17.3536 18.5071 17.7612 18.1346 18.1341L12.3197 12.3192ZM20.5432 11.2223H12.3186V3C12.8752 3.00007 13.4303 3.05621 13.9757 3.1676C15.0276 3.38302 16.0268 3.80354 16.9163 4.4051C18.2383 5.29757 19.273 6.55429 19.8952 8.02297C20.1055 8.52038 20.266 9.03733 20.3744 9.56636C20.4854 10.1117 20.5412 10.6669 20.5409 11.2234L20.5432 11.2223Z" fill="#1950A3"/>
</svg>
