<svg width="24" height="24" viewBox="0 0 24 24" fill="none" xmlns="http://www.w3.org/2000/svg">
<path d="M17.2901 4.8H14.411C14.0519 3.756 13.1115 3 12 3C10.8886 3 9.9481 3.756 9.58901 4.8H6.70992C5.76946 4.8 5 5.61 5 6.6V19.2C5 20.19 5.76946 21 6.70992 21H17.2901C18.2305 21 19 20.19 19 19.2V6.6C19 5.61 18.2305 4.8 17.2901 4.8ZM12 4.8C12.4702 4.8 12.855 5.205 12.855 5.7C12.855 6.195 12.4702 6.6 12 6.6C11.5298 6.6 11.145 6.195 11.145 5.7C11.145 5.205 11.5298 4.8 12 4.8ZM12.855 17.4H8.58016C8.10993 17.4 7.7252 16.995 7.7252 16.5C7.7252 16.005 8.10993 15.6 8.58016 15.6H12.855C13.3252 15.6 13.7099 16.005 13.7099 16.5C13.7099 16.995 13.3252 17.4 12.855 17.4ZM15.4198 13.8H8.58016C8.10993 13.8 7.7252 13.395 7.7252 12.9C7.7252 12.405 8.10993 12 8.58016 12H15.4198C15.8901 12 16.2748 12.405 16.2748 12.9C16.2748 13.395 15.8901 13.8 15.4198 13.8ZM15.4198 10.2H8.58016C8.10993 10.2 7.7252 9.795 7.7252 9.3C7.7252 8.805 8.10993 8.4 8.58016 8.4H15.4198C15.8901 8.4 16.2748 8.805 16.2748 9.3C16.2748 9.795 15.8901 10.2 15.4198 10.2Z" fill="#C3CFD4"/>
</svg>
