<svg width="24" height="24" viewBox="0 0 24 24" fill="none" xmlns="http://www.w3.org/2000/svg">
<path d="M5.25 19C4.65343 18.9994 4.08146 18.7561 3.65962 18.3234C3.23778 17.8907 3.00055 17.3041 3 16.6922V6.30785C3.00055 5.69594 3.23778 5.10926 3.65962 4.67657C4.08146 4.24389 4.65343 4.00057 5.25 4H18.75C19.3466 4.00057 19.9185 4.24389 20.3404 4.67657C20.7622 5.10926 20.9994 5.69594 21 6.30785V16.6922C20.9994 17.3041 20.7622 17.8907 20.3404 18.3234C19.9185 18.7561 19.3466 18.9994 18.75 19H5.25ZM6.15042 11.9393C6.07903 11.9395 6.01064 11.9688 5.96016 12.0205C5.90968 12.0723 5.88119 12.1425 5.88092 12.2157V13.1393C5.88092 13.2127 5.90928 13.2831 5.95979 13.3351C6.0103 13.3871 6.07885 13.4165 6.15042 13.4168H14.4756C14.5112 13.4168 14.5463 13.4096 14.5792 13.3957C14.612 13.3817 14.6418 13.3613 14.6669 13.3355C14.6921 13.3097 14.712 13.2791 14.7256 13.2455C14.7392 13.2118 14.7462 13.1758 14.7462 13.1393V12.2157C14.7459 12.1423 14.7173 12.072 14.6666 12.0202C14.6159 11.9684 14.5472 11.9393 14.4756 11.9393H6.15042ZM6.15042 8.24713C6.07903 8.24741 6.01064 8.27664 5.96016 8.32842C5.90968 8.3802 5.88119 8.45033 5.88092 8.52356V9.44713C5.88119 9.52035 5.90968 9.59048 5.96016 9.64226C6.01064 9.69404 6.07903 9.72327 6.15042 9.72355H17.8496C17.9212 9.72355 17.9898 9.69447 18.0405 9.64266C18.0912 9.59085 18.1198 9.52054 18.1201 9.44713V8.52356C18.1198 8.45014 18.0912 8.37983 18.0405 8.32802C17.9898 8.27621 17.9212 8.24713 17.8496 8.24713H6.15042Z" fill="#56AB2F"/>
</svg>
