<svg width="24" height="24" viewBox="0 0 24 24" fill="none" xmlns="http://www.w3.org/2000/svg">
<path d="M4 17.912C4.06069 15.8771 4.93719 13.9491 6.43707 12.5512C7.93695 11.1533 9.93762 10.3998 12 10.456C14.0623 10.3998 16.063 11.1533 17.5629 12.5512C19.0628 13.9491 19.9393 15.8771 20 17.912C20 19.971 16 21 12 21C7.99998 21 4 19.971 4 17.912ZM8.44487 6.512C8.44447 6.05094 8.53615 5.59432 8.71468 5.16824C8.89322 4.74216 9.15514 4.35498 9.48539 4.02882C9.81565 3.70266 10.2078 3.44392 10.6394 3.26739C11.0711 3.09086 11.5338 3 12.001 3C12.9442 3 13.8486 3.3697 14.5155 4.02776C15.1824 4.68583 15.5571 5.57836 15.5571 6.509C15.5571 7.43964 15.1824 8.33217 14.5155 8.99024C13.8486 9.6483 12.9442 10.018 12.001 10.018C11.0579 10.018 10.1533 9.6483 9.48644 8.99024C8.81954 8.33217 8.44487 7.43964 8.44487 6.509V6.512Z" fill="#C3CFD4"/>
</svg>
